<svg xmlns="http://www.w3.org/2000/svg" viewBox="0 0 512 512" role="img" aria-label="Human logo">
  <rect width="512" height="512" rx="40" fill="#F4EFE8"/>
  <g transform="translate(40 20)">
    <path d="M216 70c80 0 140 62 140 142v86h-20v-86c0-69-50-122-120-122s-120 53-120 122v86H76v-86c0-80 60-142 140-142z" fill="#B78517"/>
    <circle cx="216" cy="150" r="34" fill="#B78517"/>
    <path d="M166 300c0-40 22-68 50-68s50 28 50 68v78H166z" fill="#0A0A0A"/>
    <path d="M183 260h66v16h-66z" fill="#B78517"/>
    <path d="M120 236l20 24 20-24" fill="none" stroke="#CB6A33" stroke-width="8" stroke-linecap="round" stroke-linejoin="round"/>
    <path d="M272 236l20 24 20-24" fill="none" stroke="#CB6A33" stroke-width="8" stroke-linecap="round" stroke-linejoin="round"/>
    <path d="M150 222c8-14 18-24 30-30" fill="none" stroke="#3F6E45" stroke-width="8" stroke-linecap="round"/>
    <path d="M282 192c12 6 22 16 30 30" fill="none" stroke="#3F6E45" stroke-width="8" stroke-linecap="round"/>
  </g>
  <text x="256" y="438" text-anchor="middle" font-family="Cormorant Garamond, serif" font-size="78" letter-spacing="14" fill="#0A0A0A">HUMAN</text>
  <g transform="translate(120 460)">
    <rect x="0" y="8" width="94" height="3" rx="1.5" fill="#B78517"/>
    <circle cx="136" cy="9.5" r="6" fill="#B78517"/>
    <rect x="178" y="8" width="94" height="3" rx="1.5" fill="#B78517"/>
    <path d="M116 8l8-8h24l8 8z" fill="#3F6E45"/>
  </g>
</svg>
